# xmcd
#
# Track frame offsets: 
#        150
#        29672
#        48325
#        66635
#        88862
#        102277
#        114745
#        141130
#        156122
#        175490
#
# Disc length: 2604 seconds
#
# Revision: 1
# Processed by: cddbd v1.5.2PL0 Copyright (c) Steve Scherf et al.
# Submitted via: ExactAudioCopyFreeDBPlugin 1.0
#
DISCID=930a2a0a
DTITLE=CARNE - The Sociopass City
DYEAR=2001
DGENRE=Rock
TTITLE0=loid
TTITLE1=CLONE HEART
TTITLE2=ecstasy circus
TTITLE3=OLD SPARKY
TTITLE4=cat food
TTITLE5=dance on mars -SOCIOPASS CITY-
TTITLE6=眩暈
TTITLE7=白い曲線とナイフ
TTITLE8=strangler
TTITLE9=LEFT HAND
EXTD=YEAR: 2001
EXTT0=
EXTT1=
EXTT2=
EXTT3=
EXTT4=
EXTT5=
EXTT6=
EXTT7=
EXTT8=
EXTT9=
PLAYORDER=
